<?xml version="1.0" encoding="UTF-8" standalone="no"?>
<svg
   xmlns:dc="http://purl.org/dc/elements/1.1/"
   xmlns:cc="http://creativecommons.org/ns#"
   xmlns:rdf="http://www.w3.org/1999/02/22-rdf-syntax-ns#"
   xmlns:svg="http://www.w3.org/2000/svg"
   xmlns="http://www.w3.org/2000/svg"
   id="svg8"
   version="1.1"
   viewBox="0 0 210 297"
   height="297mm"
   width="210mm">
  <defs
     id="defs2" />
  <metadata
     id="metadata5">
    <rdf:RDF>
      <cc:Work
         rdf:about="">
        <dc:format>image/svg+xml</dc:format>
        <dc:type
           rdf:resource="http://purl.org/dc/dcmitype/StillImage" />
        <dc:title></dc:title>
      </cc:Work>
    </rdf:RDF>
  </metadata>
  <g
     id="layer1">
    <path
       id="rect4761"
       d="M 31.000231,208.02559 C 14.559869,208.02559 1,221.18035 1,237.46099 v 4.53514 c 0,16.28063 13.559896,29.43334 30.000231,29.43334 h 34.777207 c 13.75132,0 25.48723,-9.20213 28.95843,-21.73976 l -12.74239,-0.0201 c -2.87639,5.79843 -8.95731,9.76014 -16.21604,9.76014 H 31.000231 c -10.151666,0 -17.999948,-7.74877 -17.999948,-17.43355 v -4.53515 c 0,-9.68478 7.848282,-17.43562 17.999948,-17.43562 h 34.777207 c 6.31274,0 11.73488,2.99723 14.93292,7.59283 l 13.36096,0.0615 c -4.13592,-11.45919 -15.31755,-19.6541 -28.29388,-19.6541 z m 36.474237,24.56802 c -11.842905,0 -22.197189,6.73703 -27.056208,16.67597 -0.810975,1.65883 -1.95543,5.22552 -1.95543,5.22552 l 12.736671,0.0439 c 2.852023,-5.83369 8.962152,-9.94513 16.274967,-9.94513 h 34.777742 c 10.15166,0 17.99993,7.75084 17.99993,17.43565 v 4.53511 c 0,9.68481 -7.84827,17.43512 -17.99993,17.43512 H 67.474468 c -6.2335,0 -11.598139,-2.92217 -14.810974,-7.42024 l -13.389875,0.0191 C 43.481949,287.92518 54.593893,296 67.474468,296 h 34.777742 c 16.44034,0 29.99972,-13.15476 29.99972,-29.4354 v -4.53511 c 0,-16.28066 -13.55938,-29.43593 -29.99972,-29.43593 z"
       style="color:#000000;font-style:normal;font-variant:normal;font-weight:normal;font-stretch:normal;font-size:medium;line-height:normal;font-family:sans-serif;font-variant-ligatures:normal;font-variant-position:normal;font-variant-caps:normal;font-variant-numeric:normal;font-variant-alternates:normal;font-feature-settings:normal;text-indent:0;text-align:start;text-decoration:none;text-decoration-line:none;text-decoration-style:solid;text-decoration-color:#000000;letter-spacing:normal;word-spacing:normal;text-transform:none;writing-mode:lr-tb;direction:ltr;text-orientation:mixed;dominant-baseline:auto;baseline-shift:baseline;text-anchor:start;white-space:normal;shape-padding:0;clip-rule:nonzero;display:inline;overflow:visible;visibility:visible;opacity:1;isolation:auto;mix-blend-mode:normal;color-interpolation:sRGB;color-interpolation-filters:linearRGB;solid-color:#000000;solid-opacity:1;vector-effect:none;fill:#000000;fill-opacity:1;fill-rule:nonzero;stroke:#ffffff;stroke-width:2;stroke-linecap:round;stroke-linejoin:round;stroke-miterlimit:4;stroke-dasharray:none;stroke-dashoffset:0;stroke-opacity:1;color-rendering:auto;image-rendering:auto;shape-rendering:auto;text-rendering:auto;enable-background:accumulate" />
  </g>
</svg>
